<?xml version="1.0" encoding="UTF-8" standalone="no"?>
<!DOCTYPE svg PUBLIC "-//W3C//DTD SVG 1.1//EN"
 "http://www.w3.org/Graphics/SVG/1.1/DTD/svg11.dtd">
<!-- Generated by graphviz version 2.36.0 (20140111.2315)
 -->
<!-- Title: persistent Pages: 1 -->
<svg width="304pt" height="114pt"
 viewBox="0.00 0.00 304.00 114.00" xmlns="http://www.w3.org/2000/svg" xmlns:xlink="http://www.w3.org/1999/xlink">
<g id="graph0" class="graph" transform="scale(1 1) rotate(0) translate(4 110)">
<title>persistent</title>
<polygon fill="white" stroke="none" points="-4,4 -4,-110 300,-110 300,4 -4,4"/>
<!-- redis_object -->
<g id="node1" class="node"><title>redis_object</title>
<ellipse fill="#a8e270" stroke="black" cx="53" cy="-53" rx="52.1524" ry="52.1524"/>
<text text-anchor="middle" x="53" y="-56.8" font-family="'/usr/share/fonts/truetype/wqy/wqy-microhei.ttc'" font-size="14.00">内存中的</text>
<text text-anchor="middle" x="53" y="-41.8" font-family="'/usr/share/fonts/truetype/wqy/wqy-microhei.ttc'" font-size="14.00">数据对象</text>
</g>
<!-- rdb -->
<g id="node2" class="node"><title>rdb</title>
<ellipse fill="#95bbe3" stroke="black" cx="242" cy="-53" rx="53.9813" ry="53.9813"/>
<text text-anchor="middle" x="242" y="-56.8" font-family="'/usr/share/fonts/truetype/wqy/wqy-microhei.ttc'" font-size="14.00">磁盘中的</text>
<text text-anchor="middle" x="242" y="-41.8" font-family="'/usr/share/fonts/truetype/wqy/wqy-microhei.ttc'" font-size="14.00">RDB文件</text>
</g>
<!-- redis_object&#45;&gt;rdb -->
<g id="edge1" class="edge"><title>redis_object&#45;&gt;rdb</title>
<path fill="none" stroke="black" stroke-width="2" d="M105.594,-53C127.912,-53 154.248,-53 177.732,-53"/>
<polygon fill="black" stroke="black" stroke-width="2" points="177.948,-56.5001 187.948,-53 177.948,-49.5001 177.948,-56.5001"/>
<text text-anchor="middle" x="147" y="-56.8" font-family="Times,serif" font-size="14.00">rdbSave</text>
</g>
<!-- rdb&#45;&gt;redis_object -->
<g id="edge2" class="edge"><title>rdb&#45;&gt;redis_object</title>
<path fill="none" stroke="black" stroke-width="2" d="M190.131,-37.6812C183.414,-36.1626 176.579,-34.865 170,-34 149.73,-31.3347 144.265,-31.2986 124,-34 120.525,-34.4633 116.977,-35.0506 113.414,-35.7294"/>
<polygon fill="black" stroke="black" stroke-width="2" points="112.436,-32.3589 103.38,-37.8578 113.889,-39.2065 112.436,-32.3589"/>
<text text-anchor="middle" x="147" y="-37.8" font-family="Times,serif" font-size="14.00">rdbLoad</text>
</g>
</g>
</svg>
